<svg xmlns="http://www.w3.org/2000/svg" viewBox="0 0 640 360" width="640" height="360"><rect width="640" height="360" fill="#fef9c3"/><circle cx="320" cy="180" r="92" fill="#ffffff" fill-opacity="0.65"/><svg xmlns="http://www.w3.org/2000/svg" width="96" height="96" viewBox="0 0 24 24" fill="none" stroke="#a16207" stroke-width="1.5" stroke-linecap="round" stroke-linejoin="round" class="lucide lucide-wheat" aria-hidden="true" x="272" y="132"><path d="M2 22 16 8"></path><path d="M3.47 12.53 5 11l1.53 1.53a3.5 3.5 0 0 1 0 4.94L5 19l-1.53-1.53a3.5 3.5 0 0 1 0-4.94Z"></path><path d="M7.47 8.53 9 7l1.53 1.53a3.5 3.5 0 0 1 0 4.94L9 15l-1.53-1.53a3.5 3.5 0 0 1 0-4.94Z"></path><path d="M11.47 4.53 13 3l1.53 1.53a3.5 3.5 0 0 1 0 4.94L13 11l-1.53-1.53a3.5 3.5 0 0 1 0-4.94Z"></path><path d="M20 2h2v2a4 4 0 0 1-4 4h-2V6a4 4 0 0 1 4-4Z"></path><path d="M11.47 17.47 13 19l-1.53 1.53a3.5 3.5 0 0 1-4.94 0L5 19l1.53-1.53a3.5 3.5 0 0 1 4.94 0Z"></path><path d="M15.47 13.47 17 15l-1.53 1.53a3.5 3.5 0 0 1-4.94 0L9 15l1.53-1.53a3.5 3.5 0 0 1 4.94 0Z"></path><path d="M19.47 9.47 21 11l-1.53 1.53a3.5 3.5 0 0 1-4.94 0L13 11l1.53-1.53a3.5 3.5 0 0 1 4.94 0Z"></path></svg></svg>
